PathFileType	4	(X/Y/Z)	DARI_DATA/Captury_Subj5_bilateral_squat03.trc
DataRate	CameraRate	NumFrames	NumMarkers	Units	OrigDataRate	OrigDataStartFrame	OrigNumFrames
60	60	4	47	mm	59.99879837036133	60	236
Frame#	Time		LeftUpLeg_		RightUpLeg_		LeftLeg_		RightLeg_		LeftFoot_		RightFoot_		LeftToeBase_		RightToeBase_		Knee_Lateral_r		Knee_Lateral_l		Ankle_Lateral_r		Ankle_Lateral_l		LeftArm_		LeftForeArm_		LeftHand_		LeftHandEE		RightArm_		RightForeArm_		RightHand_		RightHandEE		Spine_		Spine1_		Spine2_		Spine3_		Spine4_		Spine5_		Spine_x		Spine_y		Spine_z		RASI		LASI		RIPS		LIPS		RTHI		LTHI		RTIB		LTIB		RTOE		LTOE		RHEE		LHEE		RHipAngles		LHipAngles		RKneeAngles		LKneeAngles		RAnkleAngles		LAnkleAngles
			X1	Y1	Z1	X2	Y2	Z2	X3	Y3	Z3	X4	Y4	Z4	X5	Y5	Z5	X6	Y6	Z6	X7	Y7	Z7	X8	Y8	Z8	X9	Y9	Z9	X10	Y10	Z10	X11	Y11	Z11	X12	Y12	Z12	X13	Y13	Z13	X14	Y14	Z14	X15	Y15	Z15	X16	Y16	Z16	X17	Y17	Z17	X18	Y18	Z18	X19	Y19	Z19	X20	Y20	Z20	X21	Y21	Z21	X22	Y22	Z22	X23	Y23	Z23	X24	Y24	Z24	X25	Y25	Z25	X26	Y26	Z26	X27	Y27	Z27	X28	Y28	Z28	X29	Y29	Z29	X30	Y30	Z30	X31	Y31	Z31	X32	Y32	Z32	X33	Y33	Z33	X34	Y34	Z34	X35	Y35	Z35	X36	Y36	Z36	X37	Y37	Z37	X38	Y38	Z38	X39	Y39	Z39	X40	Y40	Z40	X41	Y41	Z41	X42	Y42	Z42	X43	Y43	Z43	X44	Y44	Z44	X45	Y45	Z45	X46	Y46	Z46	X47	Y47	Z47

60	0.98333	-92.32758	986.07520	70.04528	99.06841	987.04376	64.45222	-143.98657	524.36572	32.13078	147.34930	525.99109	15.65619	-183.67615	96.95947	70.69285	186.09947	98.16019	50.25911	-210.60222	36.66362	-59.25071	196.43126	36.80882	-81.55586	200.76297	528.66559	17.18917	-197.36847	527.43225	33.99971	238.99158	101.92721	73.06899	-236.38733	100.93048	93.88377	-152.67796	1571.41589	84.51853	-251.33293	1592.45508	-236.35065	-257.11441	1612.61829	-524.71124	-250.68076	1608.99036	-629.96771	157.75513	1567.68262	74.67023	244.40732	1567.11865	-250.32748	232.82089	1598.83228	-537.47174	234.97383	1601.24243	-642.93750	3.30858	1092.51636	83.48217	2.15557	1205.53015	68.09499	1.64925	1286.78308	87.28074	0.38995	1380.43970	136.77739	-0.63958	1533.69397	153.37958	1663134.00000	0.00000	1663136.00000	56.98706	1092.78796	81.91355	2.96404	1146.15906	80.98154	4.86281	1095.02600	137.10307	160.82059	1055.12268	-48.41348	-161.25027	1053.49280	-39.00178	47.39062	1062.05383	115.90019	-38.49493	1061.61914	118.40997	196.10501	777.71301	47.42410	-190.85526	777.06610	58.51499	208.31197	335.24756	15.80775	-208.14279	269.54755	34.51759	203.39307	9.63014	-158.79369	-224.61526	8.00337	-134.98087	171.50215	27.82961	108.07793	-196.06075	28.76473	131.50891	-7.95405	2.86992	3.05489	-6.66877	3.58992	0.08115	-4.84029	-0.67141	-0.08703	-4.03464	-0.91286	-0.03691	5.03601	4.81371	-8.47579	4.65146	3.79934	11.82305
61	1.00000	-92.50012	985.89868	72.57924	98.89519	986.54108	66.91445	-143.82831	524.43774	31.33458	147.50864	525.93774	14.34851	-183.78964	97.13879	70.79562	186.05272	98.20407	50.35810	-210.52264	36.68732	-59.11546	196.97594	36.83438	-81.40063	200.91789	528.62616	16.00627	-197.21533	527.46167	33.12544	238.89297	101.96680	73.28860	-236.53787	101.16669	93.89235	-152.56839	1571.80310	83.94233	-250.14777	1592.91052	-237.25101	-255.83141	1612.90979	-525.62500	-250.06009	1608.84900	-630.90405	157.93515	1568.45068	74.13853	244.48921	1567.12988	-250.88310	232.81589	1598.27710	-538.08575	234.30029	1600.57422	-643.56555	3.31107	1092.23352	85.60552	2.29326	1205.35046	69.70810	1.85231	1286.87585	88.48814	0.63333	1380.99280	137.46484	-0.42456	1534.51855	153.13824	1663134.00000	0.00000	1663136.00000	56.98935	1092.41370	84.01678	3.05142	1145.86755	82.91536	4.88876	1094.93018	139.21664	160.71524	1054.12170	-46.21328	-161.35446	1053.04065	-36.68088	47.35610	1061.81519	118.11531	-38.52916	1061.52698	120.65729	196.07285	777.40918	48.31853	-190.88840	776.92126	59.40123	208.41608	335.17847	15.23256	-208.11255	269.65662	34.19067	204.30690	9.72398	-158.62830	-224.41203	7.97991	-134.85052	171.07802	27.89377	108.10507	-196.28430	29.02200	131.67648	-8.64085	3.02328	3.17350	-7.26833	3.43951	-0.03757	-5.49811	-0.69732	-0.09161	-4.56298	-0.83495	-0.05463	4.87621	4.96011	-8.54679	4.59522	3.80391	11.80445
62	1.01667	-92.61843	985.55023	76.38015	98.75495	986.07910	70.00678	-143.84674	524.58044	29.85775	147.09009	526.01111	12.71056	-183.75430	97.41934	70.83484	186.03082	98.45731	50.38924	-210.97105	36.76190	-58.87964	197.11002	37.05859	-81.34295	200.50090	528.64978	14.39816	-197.23228	527.56451	31.75618	238.85481	102.28638	73.34621	-236.44934	101.49350	94.04462	-152.32727	1572.47070	83.06953	-249.00311	1593.27417	-238.41673	-254.09642	1613.01746	-526.81934	-249.29651	1609.53687	-632.16791	158.26596	1569.02722	73.30549	244.74033	1566.98218	-251.73367	232.47275	1597.34973	-538.99512	233.56879	1599.86292	-644.47473	3.27572	1091.94788	88.22945	2.23965	1205.10669	71.49686	1.89271	1286.93018	89.69782	0.86559	1381.55713	138.02995	-0.05702	1535.35034	152.65848	1663134.00000	0.00000	1663136.00000	56.94787	1092.09619	86.44199	3.02418	1145.55957	85.12463	5.05160	1095.05933	141.81190	160.18097	1052.75830	-43.86794	-161.85187	1051.86841	-33.14319	47.42989	1061.76636	120.81184	-38.44553	1061.52905	123.67178	195.80597	777.09021	49.26608	-190.95390	776.70490	60.91392	208.18448	335.31683	14.36799	-208.14725	269.81665	33.71270	204.54649	10.01867	-158.58524	-225.13129	7.99204	-134.54080	170.97688	28.16089	108.13251	-195.99957	29.39352	131.86789	-9.67556	3.06368	3.38620	-8.37464	3.35386	-0.16656	-6.30501	-0.58067	-0.09679	-5.41853	-0.78022	-0.04629	4.67805	4.99374	-8.61911	4.49907	3.88778	11.77486
63	1.03333	-93.08340	985.15833	79.92764	98.30376	985.17249	73.96133	-143.85750	524.64294	28.64989	147.35300	525.97900	10.57901	-183.83301	97.63400	71.12021	185.81018	98.58752	50.52848	-210.94319	36.82707	-58.54659	197.51022	37.06366	-81.09161	200.75041	528.63202	12.62862	-197.25294	527.58386	30.32322	238.47998	102.41762	73.83681	-236.61494	101.73138	94.12749	-152.18973	1573.09985	82.14872	-247.83200	1593.60132	-239.66589	-252.17842	1612.99072	-528.10468	-248.44315	1610.57434	-633.52612	158.53146	1569.46423	72.25664	245.16046	1566.65503	-252.73558	232.10330	1596.20923	-540.04700	232.71983	1598.50122	-645.53552	3.04812	1091.39941	91.24568	2.29808	1204.63049	73.64357	2.07842	1286.80359	91.19013	1.16003	1382.05005	138.72678	0.34936	1536.16943	151.99986	1663134.00000	0.00000	1663136.00000	56.72412	1091.40344	89.57238	2.93576	1144.98877	87.76922	4.71764	1094.87769	144.80899	160.13667	1050.90991	-40.24028	-161.91936	1050.88599	-30.20048	47.05805	1061.33594	124.13091	-38.82356	1061.32959	126.80818	195.64555	776.56085	50.91312	-191.23891	776.42950	61.94890	208.33479	335.26459	13.55043	-208.12344	269.88269	33.24858	205.33958	10.03374	-158.29855	-225.03235	8.01954	-134.20668	170.31253	28.36411	108.24318	-196.09947	29.67106	132.21899	-10.87632	3.31226	3.58587	-9.32737	3.14104	-0.29849	-7.37207	-0.61565	-0.10467	-6.20091	-0.73798	-0.02469	4.46142	4.92272	-8.69307	4.35115	4.05450	11.74871
